<?xml version="1.0" standalone="no"?><!DOCTYPE svg PUBLIC "-//W3C//DTD SVG 1.1//EN" "http://www.w3.org/Graphics/SVG/1.1/DTD/svg11.dtd"><svg t="1614216659705" class="icon" viewBox="0 0 1024 1024" version="1.1" xmlns="http://www.w3.org/2000/svg" p-id="1342" xmlns:xlink="http://www.w3.org/1999/xlink" width="1080" height="1080"><defs><style type="text/css"></style></defs><path d="M275.693385 509.686014L48.654715 889.630787l139.003185 27.799837L280.327357 1024l227.03867-379.943774-231.672642-134.369212z m611.616416 236.306615L748.306615 509.686014 512 639.423253l227.03867 379.943774 92.669457-106.569375 139.004185-27.801838-83.402511-139.003185z" fill="#E7403D" p-id="1343"></path><path d="M275.693385 509.686014l-120.469295 199.238832c60.234647 64.86862 139.003186 115.836321 231.672643 139.004186L512 639.422253 275.693385 509.686014z m472.61323 0L512 639.423253l125.103267 208.505779c92.669457-23.167864 171.437995-74.135566 231.672643-139.004186l-120.469295-199.238832z" fill="#C51313" p-id="1344"></path><path d="M915.110638 472.618231c9.266946-9.266946 18.533891-27.799837 18.533891-41.700756 0-18.533891-4.632973-32.43381-18.533891-41.700756-4.632973-4.633973-9.266946-13.899919-4.632973-23.167864 9.266946-13.899919 9.266946-27.799837 4.632973-46.334728-4.632973-13.899919-13.899919-27.799837-27.799837-37.066783-4.633973 0-9.267946-9.266946-4.633973-18.533892 4.632973-13.899919 0-32.43481-4.633973-46.334728-9.266946-13.899919-23.166864-23.167864-37.067783-27.800837-9.266946 0-13.899919-9.266946-13.899918-18.533892 0-13.899919-4.633973-32.43381-18.533892-41.700755-13.899919-13.899919-27.799837-18.533891-41.700755-18.533892-9.266946 0-13.899919-4.633973-18.533892-13.899918-4.633973-13.900919-13.899919-27.801837-27.800837-37.068783-13.899919-9.266946-32.43481-9.266946-46.334728-4.632973-9.266946 0-18.533891 0-23.166864-9.266946-9.266946-13.899919-18.533891-23.167864-37.067783-27.800837-13.899919-4.633973-32.43481 0-46.334729 4.632973-9.266946 4.633973-18.533891 4.633973-23.167864-4.632973C535.166864 9.272946 516.633973 0.006 502.733054 0.006c-13.899919 9.266946-27.799837 13.899919-37.067783 23.166864-4.632973 9.266946-13.899919 9.266946-23.166864 4.633973-13.899919-9.266946-27.800837-9.266946-46.334728-4.633973-13.899919 4.633973-27.800837 13.899919-37.067783 27.800837-4.632973 4.633973-9.266946 9.266946-18.533891 9.266946-13.899919-4.632973-32.43381-4.632973-46.334729 4.633973-13.899919 9.266946-23.166864 23.166864-27.799837 37.067783 0 9.266946-9.267946 13.899919-18.534891 13.899918-13.899919 0-27.799837 4.633973-41.700756 13.899919s-18.533891 27.800837-18.533892 46.334728c0 9.266946-4.632973 13.899919-13.899918 18.533892-13.899919 0-27.800837 9.266946-32.43481 23.167864-9.266946 13.899919-9.266946 32.43381-4.632973 46.334728 0 9.266946 0 18.533891-9.266946 23.166865-13.899919 4.633973-27.800837 18.533891-32.43481 37.067783-4.632973 13.899919 0 32.43381 4.633973 46.334728 4.632973 9.266946 4.632973 18.533891-4.633973 23.166864-4.632973 4.633973-13.899919 23.167864-13.899918 37.067783 0 18.533891 4.632973 32.43381 18.533891 41.700756 4.632973 4.633973 9.266946 13.899919 4.632973 23.167864-9.266946 13.899919-13.899919 32.43381-9.266946 46.334729 4.633973 13.899919 13.899919 27.799837 27.800838 37.067782 9.266946 4.632973 9.266946 13.899919 9.266945 23.166865-4.632973 13.899919-4.632973 32.43381 4.633973 46.334728 9.266946 13.899919 23.166864 23.166864 37.067783 27.799837 9.266946 0 13.899919 9.267946 13.899918 18.534892 0 13.899919 4.633973 32.43381 18.533892 41.700755 13.899919 13.899919 27.800837 18.533891 41.700756 18.533892 9.266946 0 13.899919 4.632973 18.533891 13.899918 4.633973 13.899919 13.899919 27.800837 27.800837 37.067783 13.899919 9.266946 32.43481 9.266946 46.334729 4.633973 9.266946 0 18.533891 0 23.167864 9.266946 9.265946 13.899919 18.532891 23.166864 37.066783 27.799837 13.899919 4.633973 32.43481 0 46.334728-4.632973 4.633973-9.266946 13.899919-9.266946 18.533891-4.632973 9.266946 9.266946 27.800837 18.533891 41.701756 18.533891 18.532891 0 32.43381-4.633973 41.699756-18.533891 4.633973-4.633973 13.900919-9.266946 23.167864-4.633973 13.899919 9.266946 27.800837 9.266946 46.334729 4.633973 13.899919-4.633973 27.800837-13.899919 37.067782-27.800837 4.632973-9.266946 13.899919-9.266946 23.166865-9.266946 13.899919 4.632973 32.43481 4.632973 46.334728-4.633973 13.899919-9.266946 23.167864-23.166864 27.800837-37.067782 0-9.266946 9.266946-13.899919 18.533892-13.899919 13.899919 0 32.43481-4.633973 41.700755-18.533891 13.899919-13.899919 18.533891-27.799837 18.533892-41.700756 0-9.266946 4.633973-13.899919 13.899918-18.533892 13.900919-4.633973 27.801837-13.899919 37.068783-27.800837 9.266946-13.899919 9.266946-32.43481 4.632973-46.334728 0-9.266946 0-18.533891 9.266946-23.166864 13.899919-9.266946 23.167864-18.533891 27.800837-37.067783 4.633973-13.899919 0-32.43481-4.632973-46.334729-13.899919 4.632973-9.266946-4.633973-4.633973-13.899918zM553.700756 611.622416H484.200163V361.415882h-88.035484v-46.334728c23.166864 0 37.067783-4.633973 46.334728-4.633973 13.899919-4.632973 27.799837-9.266946 37.067783-18.532891 4.632973-4.633973 9.266946-13.899919 13.899919-27.800838 0-4.633973 4.633973-9.266946 4.633972-13.899918h60.234648v361.407882z" fill="#F9BA00" p-id="1345"></path><path d="M507.367027 866.462923c-18.533891 0-37.067783-9.266946-46.334728-18.533891 0 0-4.633973-4.633973-9.266946-4.633973h-4.633973c-9.266946 4.633973-23.166864 9.266946-32.43381 9.266946h-18.533891c-18.533891-4.632973-32.43381-13.899919-41.700756-32.43381 0-4.633973-4.633973-4.633973-9.266946-4.633973h-4.633972c-4.632973 0-13.899919 0-18.533892 4.633973-13.899919 0-23.166864-4.633973-32.43381-9.266946-13.899919-9.266946-27.800837-23.167864-32.43481-41.701756 0-4.632973-4.632973-9.266946-9.266945-9.266945-18.533891 0-37.066783-9.266946-46.333729-18.533892-13.899919-13.899919-18.533891-27.799837-18.533891-46.333728 0-4.633973-4.633973-9.266946-9.266946-9.266946-18.533891-9.266946-32.43481-23.167864-41.701756-37.067783-9.266946-13.899919-9.266946-32.43481-4.632973-50.968701 0-4.632973 0-9.266946-4.633972-13.899919-13.899919-9.266946-27.799837-23.166864-32.43381-41.700755-4.633973-18.533891 0-37.067783 4.632972-50.968702 4.633973-4.632973 0-9.266946 0-13.899918-13.899919-13.899919-18.533891-27.800837-18.533891-46.334729s9.266946-37.067783 18.533891-46.334728c4.633973-4.632973 4.633973-9.266946 0-13.899919-9.266946-13.899919-9.266946-32.43481-4.632972-50.968701 4.632973-18.533891 13.899919-32.43381 32.43381-41.700756 4.633973 0 4.633973-4.632973 4.633972-9.266946-4.633973-18.533891-4.633973-37.067783 4.632973-50.967701 9.266946-18.533891 23.167864-27.800837 41.701756-32.43481 4.632973 0 9.266946-4.632973 9.266946-9.266946 0-18.533891 9.266946-37.066783 18.533891-46.333728 13.899919-13.899919 27.799837-18.533891 46.333729-18.533892 4.633973 0 9.266946-4.633973 9.266945-9.266945 4.633973-18.533891 13.899919-32.43481 32.43481-41.701756 13.899919-9.266946 23.166864-9.266946 37.067783-9.266946 4.632973 0 13.899919 0 18.533891 4.633973h4.632973c4.633973 0 9.266946 0 9.266946-4.633973 9.266946-13.899919 23.166864-27.799837 41.700756-32.43381h18.533891c13.899919 0 23.167864 4.632973 32.43481 9.266946h4.632973c4.633973 0 4.633973 0 9.266945-4.633973C470.300244 9.272946 488.833136 0.006 507.367027 0.006s37.066783 9.266946 46.333729 18.533891c0 0 4.633973 4.632973 9.266945 4.632973h4.633973c9.266946-4.632973 23.166864-9.266946 32.43381-9.266945h18.533892c18.533891 4.633973 32.43481 18.533891 41.700755 32.434809 0 4.632973 4.633973 4.632973 9.266946 4.632973h23.167864c13.899919 0 23.166864 4.633973 32.43381 9.266946 13.899919 9.266946 27.800837 23.167864 32.43481 41.701756 0 4.632973 4.632973 9.266946 9.266946 9.266945 18.533891 0 37.067783 9.266946 46.333728 18.533892 13.899919 13.899919 18.533891 27.799837 18.533892 46.333728 0 4.633973 4.633973 9.266946 9.266945 9.266946 18.533891 4.633973 32.43481 13.899919 41.701756 32.43481 9.266946 13.899919 9.266946 32.43381 4.632973 50.967701 0 4.633973 0 9.266946 4.633973 13.899919 13.899919 9.267946 27.799837 23.167864 32.43381 41.701756 4.633973 13.899919 4.633973 32.43381-4.632973 46.334728-4.633973 4.632973 0 9.266946 0 13.899919 13.899919 13.899919 18.533891 27.800837 18.533891 46.334728s-9.266946 37.067783-18.533891 46.334729c-4.633973 4.632973-4.633973 9.266946 0 13.899918 9.266946 13.899919 9.266946 32.43481 4.632973 50.968702-4.632973 18.533891-13.899919 32.43381-32.43381 41.700755-4.633973 4.632973-4.633973 9.266946-4.633973 13.899919 4.633973 18.533891 0 37.067783-4.632973 50.968701-9.266946 13.899919-23.167864 27.799837-41.701756 32.43381-4.632973 0-9.266946 4.633973-9.266945 9.266946 0 18.533891-4.632973 37.067783-18.533892 46.334728-13.899919 13.899919-27.799837 18.533891-46.333728 18.533892-4.633973 0-9.266946 4.632973-9.266946 9.266945-4.633973 18.533891-13.899919 32.43381-32.43481 41.700756-9.266946 4.633973-23.166864 9.266946-32.43381 9.266946-4.633973 0-13.899919 0-18.533891-4.632973h-4.633973c-4.632973 0-9.266946 0-9.266946 4.632973-9.265946 13.899919-23.166864 27.800837-41.699755 32.43481h-18.534892c-13.899919 0-23.166864-4.633973-32.43381-9.266946h-4.633973c-4.632973 0-4.632973 0-9.266945 4.632973-13.899919 13.899919-27.799837 23.167864-46.333729 23.167864z m-55.601674-41.701756c4.632973 0 13.899919 4.633973 18.533891 9.266946 9.266946 9.266946 23.166864 13.899919 37.067783 13.899919 13.899919 0 27.799837-4.632973 37.066783-13.899919 4.633973-4.632973 9.266946-9.266946 18.533891-9.266946 4.633973 0 9.266946 0 13.899919 4.633973 13.900919 4.632973 27.801837 9.266946 41.701756 4.632973 13.899919-4.632973 23.167864-13.899919 32.43481-23.166864 4.632973-9.266946 13.899919-13.899919 23.166864-13.899919h18.533891c9.266946 0 18.533891-4.633973 27.799837-9.267945 13.900919-9.266946 18.534891-18.533891 23.167865-32.43381 4.633973-9.266946 13.899919-18.533891 23.167864-18.533892 13.899919 0 27.799837-4.633973 37.067783-13.899918 9.265946-9.266946 13.899919-23.167864 13.899918-37.067783 0-13.899919 9.266946-23.167864 18.533892-23.167864 13.899919-4.632973 23.166864-13.899919 32.43381-23.166865 9.266946-13.899919 9.266946-27.800837 4.633972-41.701755-4.633973-9.266946 0-23.166864 13.899919-27.799837 13.899919-9.266946 18.533891-18.533891 23.167864-32.43481 4.632973-13.899919 0-27.799837-4.633973-41.700756-4.632973-9.266946-4.632973-23.167864 4.633973-32.43481 9.266946-9.266946 13.899919-23.166864 13.899919-37.066783 0-13.899919-4.632973-27.800837-13.899919-37.067783s-9.266946-23.167864-4.633973-32.43481c9.266946-13.899919 9.266946-27.799837 4.633973-41.700755-4.633973-13.899919-13.899919-23.166864-23.167864-32.43381-9.266946-4.633973-13.899919-18.533891-13.899919-27.800837 4.632973-13.899919 0-27.800837-4.633972-41.701756-9.266946-13.899919-18.533891-18.533891-32.43381-23.166864-9.266946-4.633973-18.533891-13.899919-18.533892-23.167864 0-13.899919-4.633973-27.799837-13.899918-37.066783-9.266946-9.266946-23.167864-13.899919-37.067783-13.899919-13.899919 0-23.167864-9.267946-23.167864-18.534891-4.632973-13.899919-13.899919-23.166864-23.166865-32.43381-9.266946-4.633973-18.533891-9.266946-27.800837-9.266946h-18.533891c-9.266946 0-18.533891-4.633973-23.166864-13.899918-9.266946-13.900919-18.533891-18.534891-32.43481-23.167865-13.899919-4.633973-27.799837 0-41.700756 4.632973-4.633973 0-9.266946 4.633973-13.899919 4.633973-4.633973 0-13.900919-4.633973-18.534891-9.266946-9.266946-9.266946-23.166864-13.899919-37.066783-13.899918-13.899919 0-27.800837 4.632973-37.067783 13.899918-4.633973 18.533891-9.266946 18.533891-18.533891 18.533892-4.633973 0-9.266946 0-13.899919-4.633973-9.267946-4.632973-23.167864-9.266946-37.068782-4.632973-13.899919 4.632973-27.799837 13.899919-32.43381 27.799837-4.632973 4.633973-13.899919 9.267946-23.166865 9.267946H326.661086c-9.266946 0-18.533891 4.632973-27.800837 9.266946-13.899919 4.632973-23.167864 13.899919-23.167864 27.799837-4.632973 13.900919-13.899919 18.534891-27.799837 18.534891s-27.801837 4.632973-37.067783 18.533891c-9.266946 9.265946-13.899919 23.166864-13.899919 37.066783 0 9.266946-9.267946 18.533891-18.534891 23.167865-13.899919 4.632973-27.799837 13.899919-32.43381 23.166864-9.266946 13.899919-9.266946 27.800837-4.633973 41.701755 4.633973 9.266946 0 23.166864-13.899919 27.799838-9.266946 9.266946-18.533891 18.533891-23.167864 32.43481-4.632973 13.899919 0 27.799837 4.633973 41.700755 4.632973 9.266946 4.632973 23.167864-4.633973 32.43481-9.266946 4.632973-13.899919 18.533891-13.899918 32.43381 0 13.899919 4.632973 27.799837 13.899918 37.067783 9.266946 9.266946 9.266946 23.166864 4.633973 32.43381-9.266946 13.899919-9.266946 27.800837-4.633973 41.701756 4.633973 13.899919 13.899919 23.166864 23.167864 32.433809 9.266946 4.633973 13.899919 13.899919 13.899919 27.799838-4.632973 13.900919 0 27.801837 4.633973 41.701755 9.266946 13.899919 18.533891 18.533891 32.43381 23.167864 9.266946 4.632973 18.533891 13.899919 18.533891 23.166865 0 13.899919 4.633973 27.800837 13.899919 37.067783 9.266946 9.266946 23.167864 13.899919 37.067783 13.899918 13.899919 0 23.167864 9.266946 23.167864 18.533892 4.632973 13.899919 13.899919 23.167864 23.166864 32.434809 9.266946 4.632973 18.533891 9.266946 27.800837 9.266946h18.533892c9.266946 0 18.533891 4.632973 23.167864 13.899919 9.265946 9.266946 23.166864 13.899919 37.066783 18.533891 13.899919 4.633973 27.800837 0 41.701755-4.632973 0 0 4.632973-4.633973 9.266946-4.633973z" fill="#E47C13" p-id="1346"></path><path d="M507.367027 55.607674c101.935403 0 199.238833 41.700756 264.106453 111.202349 69.501593 69.502593 111.203348 162.17105 111.203348 264.107452s-41.701756 199.238833-111.203348 264.107453c-69.501593 69.501593-162.17105 111.202348-264.106453 111.202348s-199.238833-41.700756-264.108452-111.202348C173.758982 625.522335 132.057226 532.852878 132.057226 430.917475s41.701756-199.238833 111.203349-264.107452C308.128195 97.30843 405.430624 55.607674 507.367027 55.607674zM752.938588 185.343914C692.704941 120.476294 604.669457 83.408511 507.367027 83.408511c-97.30343 0-185.338914 37.067783-245.573561 101.935403-64.86862 64.86962-101.936403 148.271131-101.936403 245.573561s37.067783 185.338914 101.936403 245.573561c64.86862 64.86762 148.270131 101.935403 245.573561 101.935403 97.30243 0 185.337914-37.067783 245.572561-101.935403 64.86862-64.86962 101.936403-148.271131 101.936403-245.573561S817.808208 250.212534 752.938588 185.343914z" fill="#FFFFFF" p-id="1347"></path></svg>