<?xml version="1.0" standalone="no"?><!DOCTYPE svg PUBLIC "-//W3C//DTD SVG 1.1//EN" "http://www.w3.org/Graphics/SVG/1.1/DTD/svg11.dtd"><svg t="1614216647453" class="icon" viewBox="0 0 1024 1024" version="1.1" xmlns="http://www.w3.org/2000/svg" p-id="1545" xmlns:xlink="http://www.w3.org/1999/xlink" width="1080" height="1080"><defs><style type="text/css"></style></defs><path d="M281.938 536.81L60.898 897.693l135.331 27.066L286.45 1024l221.04-360.881-225.55-126.308z m595.454 230.062l-139.841-225.55L512 663.119 733.04 1024l90.22-99.242 135.33-27.066-81.198-130.82z" fill="#E7403D" p-id="1546"></path><path d="M281.938 536.81L164.652 726.274c58.643 63.154 135.33 112.775 225.55 135.33L512 663.12 281.938 536.81z m460.124 0L512 663.12l121.797 198.485c90.22-22.556 166.908-72.177 225.551-135.33L742.062 536.81z" fill="#C51313" p-id="1547"></path><path d="M908.97 464.634c9.021-9.022 18.043-27.066 18.043-40.599 0-18.044-4.51-31.577-18.044-40.599-4.51-4.51-9.022-13.533-4.51-22.555 9.021-13.533 9.021-27.066 4.51-45.11-4.51-13.533-13.533-27.066-27.066-36.088-9.022-4.511-9.022-13.533-9.022-22.555 4.511-13.533 0-31.577-4.511-45.11-9.022-13.533-22.555-22.555-36.088-27.066-9.022 0-13.533-9.022-13.533-18.045 0-13.533-4.511-31.577-18.044-40.599-13.533-13.533-27.066-18.044-40.6-18.044-9.021 0-13.532-4.51-18.043-13.533-4.511-13.533-13.533-27.066-27.066-36.088-13.533-9.022-31.577-9.022-45.11-4.51-9.023 0-18.045 0-22.556-9.023-9.022-13.533-18.044-22.555-36.088-27.066-13.533-4.511-31.577 0-45.11 4.511-9.022 4.511-18.044 4.511-22.555-4.51C534.555 9.021 516.511 0 502.978 0c-18.044 0-31.577 4.511-40.6 18.044 0 18.044-4.51 18.044-13.532 13.533-13.533-9.022-27.066-9.022-45.11-4.51-13.533 4.51-27.066 13.532-36.088 27.065-4.511 4.511-9.022 9.022-18.044 9.022-13.534-4.51-31.578-4.51-45.11 4.511-13.534 9.022-22.556 22.555-27.067 36.088 0 9.022-9.022 13.533-18.044 13.533-13.533 0-31.577 4.511-40.599 18.044s-18.044 22.555-18.044 40.6c0 9.022-4.51 13.533-13.533 18.044-13.533 0-27.066 9.022-36.088 22.555-9.022 13.533-9.022 31.577-4.511 45.11 0 9.022 0 18.044-9.022 22.555-13.533 4.51-22.555 18.044-27.066 36.088-4.511 13.533 0 31.577 4.51 45.11 4.512 9.022 4.512 18.044-4.51 22.555-4.511 4.511-13.533 22.555-13.533 36.088 0 18.044 4.51 31.577 18.044 40.6 4.51 4.51 9.022 13.532 4.51 22.554-9.021 13.533-9.021 27.067-4.51 45.11 4.51 13.534 13.533 27.067 27.066 36.089 9.022 4.51 9.022 13.533 9.022 22.555-4.511 13.533-4.511 31.577 4.511 45.11 9.022 13.533 22.555 22.555 36.088 27.066 9.022 0 13.533 9.022 13.533 18.044 0 13.533 4.511 31.577 18.044 40.6 13.533 13.532 27.066 18.043 40.6 18.043 9.021 0 13.532 4.511 18.043 13.533 4.511 13.533 13.533 27.066 27.066 36.088 13.533 9.022 31.577 9.022 45.11 4.511 9.023 0 18.045 0 22.556 9.022 9.022 13.533 18.044 22.555 36.088 27.066 13.533 4.511 31.577 0 45.11-4.51 0-9.023 4.51-9.023 13.533-4.512 9.022 9.022 27.066 18.044 40.599 18.044s31.577-4.51 40.6-18.044c4.51-4.51 13.532-9.022 22.554-4.51 13.533 9.021 27.066 9.021 45.11 4.51 13.533-4.51 27.066-13.533 36.088-27.066 4.511-9.022 13.533-9.022 22.555-9.022 13.534 4.511 31.578 4.511 45.11-4.51 13.534-9.023 22.556-22.556 27.067-36.089 0-9.022 9.022-13.533 18.044-13.533 13.533 0 31.577-4.51 40.599-18.044 13.533-13.533 18.044-27.066 18.044-40.599 0-9.022 4.51-13.533 13.533-18.044 13.533-4.511 27.066-13.533 36.088-27.066 9.022-13.533 9.022-31.577 4.511-45.11 0-9.022 0-18.044 9.022-22.555 13.533-9.022 22.555-18.044 27.066-36.088 4.511-13.534 0-31.578-4.51-45.11-13.534 4.51-13.534-4.512-4.512-13.534zM633.796 586.432H390.203c0-27.066 4.51-49.621 18.044-67.665 9.022-22.556 31.577-49.622 67.665-72.177 31.577-22.555 54.132-40.599 63.154-49.62 13.533-13.534 22.555-31.578 22.555-49.622 0-13.533-4.51-27.066-13.533-36.088S530.044 288.705 512 288.705c-22.555 0-36.088 9.022-45.11 22.555 0 9.022-4.511 27.066-4.511 45.11h-67.665c0-31.577 4.51-54.132 18.044-72.176 18.044-36.088 49.62-54.132 94.731-54.132 36.088 0 67.665 9.022 90.22 31.577 22.555 22.555 31.577 49.62 31.577 81.198 0 27.066-9.022 49.621-22.555 67.665-9.022 13.533-27.066 27.066-49.62 45.11l-27.067 18.044C512 491.7 502.978 500.722 493.956 505.233s-13.533 13.534-18.044 18.045h153.374v63.154z" fill="#B6C2D2" p-id="1548"></path><path d="M512 848.07c-18.044 0-36.088-9.022-45.11-18.044 0 0-4.511-4.51-9.022-4.51h-4.511c-9.022 4.51-22.555 9.021-31.577 9.021h-18.044c-18.044-4.51-31.577-13.533-40.6-31.577 0-4.51-4.51-4.51-9.021-4.51h-4.511c-4.511 0-13.534 0-18.045 4.51-13.533 0-22.555-4.51-31.577-9.022-13.533-9.022-27.066-22.555-31.577-40.599 0-4.51-4.51-9.022-9.022-9.022-18.044 0-36.088-9.022-45.11-18.044-13.533-13.533-18.044-27.066-18.044-45.11 0-4.511-4.51-9.022-9.022-9.022-18.044-4.511-31.577-13.533-40.6-31.577-9.021-13.533-9.021-31.577-4.51-49.621 0-4.511 0-9.022-4.511-13.533-13.533-9.022-27.066-22.555-31.577-40.6-4.511-18.043 0-36.088 4.51-49.62 4.512-4.512 0-9.023 0-13.534-13.532-13.533-18.043-27.066-18.043-45.11s9.022-36.088 18.044-45.11c4.51-4.51 4.51-9.022 0-13.533-9.022-18.044-9.022-36.088-4.511-54.132 4.51-18.044 13.533-31.577 31.577-40.6 4.51 0 4.51-4.51 4.51-9.021-4.51-18.044-4.51-36.088 4.512-49.621 9.022-18.044 22.555-27.066 40.599-31.577 4.511 0 9.022-4.511 9.022-9.022 0-18.045 9.022-36.089 18.044-45.11 13.533-13.534 27.066-18.045 45.11-18.045 4.511 0 9.022-4.51 9.022-9.022 9.022-18.044 18.044-36.088 31.577-45.11 9.022-4.51 22.555-4.51 31.577-4.51 4.511 0 13.534 0 18.045 4.51h4.51c4.512 0 9.023 0 9.023-4.51 9.022-13.534 22.555-27.067 40.599-31.578h18.044c13.533 0 22.555 4.511 31.577 9.022h4.51c4.512 0 4.512 0 9.023-4.51C475.912 13.532 493.956 4.51 512 4.51s36.088 9.022 45.11 18.044c0 0 4.511 4.511 9.022 4.511h4.511c9.022-4.51 22.555-9.022 31.577-9.022h18.044c18.044 4.511 31.577 13.533 40.6 31.577 0 4.511 4.51 4.511 9.021 4.511h22.556c13.533 0 22.555 4.511 31.577 9.022 13.533 9.022 27.066 22.555 31.577 40.6 0 4.51 4.51 9.021 9.022 9.021 18.044 0 36.088 9.022 45.11 18.044 13.533 9.022 18.044 27.066 18.044 45.11 0 4.512 4.51 9.023 9.022 9.023 18.044 4.51 31.577 13.533 40.6 31.577 9.021 13.533 9.021 31.577 4.51 49.62 0 4.512 0 9.023 4.511 13.534 13.533 9.022 27.066 22.555 31.577 40.599 4.511 18.044 0 36.088-4.51 49.621-4.512 4.511 0 9.022 0 13.533 13.532 13.533 18.043 27.066 18.043 45.11s-9.022 36.088-18.044 45.11c-4.51 4.511-4.51 9.022 0 13.533 9.022 13.533 9.022 31.578 4.511 49.622-4.51 18.044-13.533 31.577-31.577 40.599-4.51 4.51-4.51 9.022-4.51 13.533 4.51 18.044 0 36.088-4.512 49.62-9.022 13.534-22.555 27.067-40.599 31.578-4.511 0-9.022 4.511-9.022 9.022 0 18.044-4.511 36.088-18.044 45.11-13.533 13.533-27.066 18.044-45.11 18.044-4.511 0-9.022 4.511-9.022 9.022-4.511 18.044-13.533 31.577-31.577 40.6-9.022 4.51-22.555 9.021-31.577 9.021-4.511 0-13.534 0-18.045-4.51h-4.51c-4.512 0-9.023 0-9.023 4.51-9.022 13.533-22.555 27.066-40.599 31.577H602.22c-13.533 0-22.555-4.51-31.577-9.022h-4.51c-4.512 0-4.512 0-9.023 4.511-13.533 9.022-27.066 18.044-45.11 18.044z m-54.132-40.599c4.51 0 13.533 4.511 18.044 9.022 9.022 9.022 22.555 13.533 36.088 13.533 13.533 0 27.066-4.51 36.088-13.533 4.511-4.51 9.022-9.022 18.044-9.022 4.511 0 9.022 0 13.533 4.511 13.533 4.511 27.066 9.022 40.6 4.511 13.532-4.51 22.554-13.533 31.576-22.555 4.511-9.022 13.533-13.533 22.555-13.533h18.045c9.022 0 18.044-4.51 27.066-9.022 13.533-9.022 18.044-18.044 22.555-31.577 4.51-9.022 13.533-18.044 22.555-18.044 13.533 0 27.066-4.51 36.088-13.533 9.022-9.022 13.533-22.555 13.533-36.088 0-13.533 9.022-22.555 18.044-22.555 13.533-4.511 22.555-13.533 31.577-22.555 9.022-13.533 9.022-27.066 4.511-40.6-4.511-9.021 0-22.554 13.533-27.065 13.533-9.022 18.044-18.044 22.555-31.577 4.511-13.533 0-27.067-4.51-40.6-4.512-9.022-4.512-22.555 4.51-31.577 9.022-4.51 13.533-18.044 13.533-31.577 0-13.533-4.51-27.066-13.533-36.088-9.022-9.022-9.022-22.555-4.51-31.577 9.021-13.533 9.021-27.066 4.51-40.6-4.51-13.532-13.533-22.554-22.555-31.576-9.022-4.511-13.533-18.044-13.533-27.066 4.511-13.533 0-27.066-4.511-40.6-9.022-13.532-18.044-18.043-31.577-22.554-9.022-4.511-18.044-13.533-18.044-22.555 0-13.534-4.511-27.067-13.533-36.089-9.022-9.022-22.555-13.533-36.088-13.533-13.533 0-22.555-9.022-22.555-18.044-4.511-13.533-13.533-22.555-22.555-31.577-9.022-4.51-18.044-9.022-27.066-9.022h-18.044c-9.023 0-18.045-4.51-22.556-13.533-9.022-13.533-18.044-18.044-31.577-22.555-13.533-4.51-27.066 0-40.599 4.511-4.51 0-9.022 4.511-13.533 4.511-4.51 0-13.533-4.51-18.044-9.022-9.022-9.022-22.555-13.533-36.088-13.533-13.533 0-27.066 4.511-36.088 13.533C471.4 40.6 462.379 40.6 457.868 40.6c-4.511 0-9.022 0-13.533-4.51-9.022-4.512-27.066-9.023-36.088-4.512-13.533 4.511-27.066 13.533-31.577 27.066-4.511 4.511-13.533 9.022-22.555 9.022H336.07c-9.022 0-18.044 4.511-27.066 9.022-13.533 4.511-22.555 13.533-22.555 27.066-4.51 13.533-13.533 18.044-27.066 18.044s-27.066 4.511-36.088 18.044c-9.022 9.022-13.533 22.555-13.533 36.089 0 13.533-9.022 22.555-18.044 22.555-13.533 4.51-27.066 13.533-31.577 22.555-9.022 13.533-9.022 27.066-4.511 40.599 4.511 9.022 0 22.555-13.533 27.066-9.022 9.022-18.044 18.044-22.555 31.577-4.511 13.533 0 27.066 4.51 40.6 4.512 9.021 4.512 22.554-4.51 31.576-9.022 4.511-13.533 18.044-13.533 31.577 0 13.533 4.51 27.066 13.533 36.088 9.022 9.022 9.022 22.555 4.51 31.577-9.021 13.533-9.021 27.067-4.51 40.6 4.51 13.533 13.533 22.555 22.555 31.577 9.022 4.51 13.533 13.533 13.533 27.066-4.511 13.533 0 27.066 4.511 40.599 9.022 13.533 18.044 18.044 31.577 22.555 9.022 4.51 18.044 13.533 18.044 22.555 0 13.533 4.511 27.066 13.533 36.088 9.022 9.022 22.555 13.533 36.088 13.533 13.533 0 22.555 9.022 22.555 18.044 4.511 13.533 13.533 27.066 27.066 31.577 9.022 4.511 18.044 9.022 27.066 9.022h18.045c9.022 0 18.044 4.511 22.555 13.533 9.022 13.533 18.044 18.044 31.577 22.555 13.533 4.511 27.066 0 40.599-4.51 0-4.512 4.51-9.023 9.022-9.023z" fill="#99A9BF" p-id="1549"></path><path d="M512 58.643c99.242 0 193.974 40.6 257.128 108.264 67.665 67.666 108.264 157.886 108.264 257.128S836.793 618.01 769.128 681.163C701.463 748.828 611.242 789.427 512 789.427s-193.974-40.599-257.128-108.264c-67.665-67.665-108.264-157.885-108.264-257.128s40.599-193.973 108.264-257.128C318.026 99.242 412.758 58.643 512 58.643z m239.084 126.309C687.93 121.797 606.73 85.709 512 85.709s-180.44 36.088-239.084 99.243c-63.154 63.154-99.242 144.352-99.242 239.083s36.088 180.44 99.242 239.084C331.56 726.273 417.27 762.36 512 762.36s180.44-36.088 239.084-99.242c63.154-63.154 99.242-144.352 99.242-239.084s-36.088-175.93-99.242-239.083z" fill="#FFFFFF" p-id="1550"></path></svg>