<?xml version="1.0" standalone="no"?><!DOCTYPE svg PUBLIC "-//W3C//DTD SVG 1.1//EN" "http://www.w3.org/Graphics/SVG/1.1/DTD/svg11.dtd"><svg t="1614216705818" class="icon" viewBox="0 0 1024 1024" version="1.1" xmlns="http://www.w3.org/2000/svg" p-id="2338" xmlns:xlink="http://www.w3.org/1999/xlink" width="1080" height="1080"><defs><style type="text/css"></style></defs><path d="M279.893 500.622L56.89 887.467l136.533 27.306 91.022 104.676L512 637.156 279.893 500.622z m600.747 241.21l-136.533-241.21L512 637.156 735.004 1024l91.023-104.676 136.533-27.306-81.92-150.187z" fill="#E7403D" p-id="2339"></path><path d="M279.893 500.622l-118.329 204.8c59.165 68.267 136.534 118.33 227.556 145.636L512 637.156 279.893 500.622z m464.214 0L512 637.156l122.88 213.902c91.022-22.756 168.391-77.37 227.556-145.636l-118.33-204.8z" fill="#C51313" p-id="2340"></path><path d="M917.049 464.213c9.102-9.102 18.204-27.306 18.204-40.96 0-18.204-4.55-31.857-18.204-40.96-4.551-4.55-9.102-13.653-4.551-22.755 9.102-13.654 13.653-27.307 9.102-40.96-4.551-13.654-13.653-27.307-27.307-36.41-9.102-4.55-9.102-13.652-9.102-22.755 4.551-13.653 0-31.857-4.551-45.51-9.102-13.654-22.756-22.756-36.409-27.307-9.102 0-13.653-9.103-13.653-18.205 0-13.653-4.551-31.858-18.205-40.96-13.653-13.653-27.306-18.204-40.96-18.204-9.102 0-13.653-4.551-18.204-13.654-4.551-13.653-13.653-27.306-27.307-36.409-13.653-9.102-31.858-9.102-45.51-4.55-9.103 0-18.205 0-22.756-9.103-9.103-13.653-18.205-22.755-36.41-27.307-13.653-4.55-31.857 0-45.51 4.552-9.103 4.55-18.205 4.55-22.756-4.552C543.858 9.102 525.653 0 512 0c-18.204 0-31.858 4.551-40.96 18.204 0 13.654-9.102 13.654-18.204 9.103-13.654-9.103-27.307-9.103-45.512-4.551-13.653 4.55-27.306 13.653-31.857 27.306-4.551 4.551-13.654 9.102-22.756 9.102-13.653-4.55-31.858-4.55-45.511 4.552-13.653 9.102-22.756 22.755-22.756 36.408 0 9.103-9.102 13.654-18.204 13.654-13.653 0-31.858 4.55-40.96 18.204-13.653 9.102-18.204 22.756-18.204 40.96 0 9.102-4.552 13.654-13.654 18.205-13.653 0-27.306 9.102-36.409 22.755-9.102 18.205-9.102 31.858-4.55 45.511 0 9.103 0 18.205-9.103 22.756-13.653 4.551-22.756 18.204-27.307 36.409-4.55 13.653 0 31.858 4.551 45.51 4.552 9.103 4.552 18.205-4.55 22.756-9.103 4.552-13.654 22.756-13.654 36.41 0 18.204 4.551 31.857 18.204 40.96 4.552 4.55 9.103 13.653 4.552 22.755-9.103 13.653-9.103 27.307-4.552 45.511 4.552 13.653 13.654 27.307 27.307 36.409 9.102 4.551 9.102 13.653 9.102 22.755-4.55 13.654-4.55 31.858 4.551 45.512 9.103 13.653 22.756 22.755 36.41 27.306 9.102 0 13.653 9.102 13.653 18.205 0 13.653 4.55 31.857 18.204 40.96 13.653 13.653 27.307 18.204 40.96 18.204 9.102 0 13.653 4.551 18.205 13.653 4.55 13.654 13.653 27.307 27.306 36.41 13.654 9.102 31.858 9.102 45.511 4.55 9.103 0 18.205 0 22.756 9.103 9.102 13.653 18.204 22.755 36.409 27.306 13.653 4.551 31.858 0 45.51-4.55-4.55-9.103 4.552-9.103 9.103-4.552 9.102 9.102 27.307 18.205 40.96 18.205 18.205 0 31.858-4.552 40.96-18.205 4.551-4.551 13.653-9.102 22.756-4.551 13.653 9.102 27.306 9.102 45.51 4.551 13.654-4.551 27.307-13.653 36.41-27.307 4.55-9.102 13.653-9.102 22.755-9.102 13.654 4.551 31.858 4.551 45.511-4.55 13.654-9.103 22.756-22.756 27.307-36.41 0-9.102 9.102-13.653 18.204-13.653 13.654 0 31.858-4.551 40.96-18.205 13.654-13.653 18.205-27.306 18.205-40.96 0-9.102 4.551-13.653 13.653-18.204 13.654-4.551 27.307-13.653 36.41-27.307 9.101-13.653 9.101-31.857 4.55-45.51 0-9.103 0-18.205 9.102-22.756 13.654-9.103 22.756-18.205 27.307-36.41 4.551-13.653 0-31.857-4.551-45.51-9.102 4.55-9.102-4.551-4.551-13.654zM607.573 573.44c-22.755 22.756-50.062 31.858-91.022 31.858-50.062 0-86.471-18.205-104.675-50.062-9.103-18.205-18.205-40.96-18.205-68.267h72.818c0 13.653 0 27.307 9.102 36.409 9.102 18.204 22.756 27.306 45.511 27.306 13.654 0 27.307-4.55 36.41-13.653 9.101-9.102 13.652-22.755 13.652-40.96 0-22.755-9.102-40.96-27.306-45.511-13.654-4.551-31.858-9.102-54.614-9.102v-50.062c22.756 0 36.41-4.552 45.512-4.552 18.204-9.102 22.755-22.755 22.755-40.96 0-13.653 0-27.306-9.102-36.408s-18.205-13.654-31.858-13.654c-18.204 0-27.307 4.551-36.409 13.654-9.102 13.653-13.653 27.306-13.653 45.51h-63.716c0-18.204 4.551-36.408 9.103-50.062 4.55-13.653 13.653-27.306 27.306-36.408 9.102-9.103 18.205-13.654 31.858-18.205s27.307-4.551 45.511-4.551c31.858 0 59.165 9.102 81.92 27.307 22.756 18.204 31.858 40.96 31.858 68.266 0 22.756-4.551 36.41-18.205 54.614L584.818 409.6c4.55 0 13.653 4.551 27.306 18.204 18.205 18.205 27.307 40.96 27.307 68.267s-9.102 54.613-31.858 77.369z" fill="#C2762B" p-id="2341"></path><path d="M516.551 851.058c-18.204 0-36.409-9.102-45.511-18.205 0 0-4.551-4.55-9.102-4.55h-4.551c-9.103 4.55-22.756 9.101-31.858 9.101h-18.205c-13.653-9.102-31.857-18.204-40.96-31.857 0-4.551-4.55-4.551-9.102-4.551h-4.55c-4.552 0-13.654 0-18.205 4.55-13.654 0-22.756-4.55-31.858-9.102-13.653-9.102-27.307-22.755-31.858-40.96 0-4.55-4.551-9.102-9.102-9.102-18.205 0-36.409-9.102-45.511-18.204-13.654-13.654-18.205-27.307-18.205-45.511 0-4.551-4.55-9.103-9.102-9.103-18.204-4.55-31.858-13.653-40.96-31.857-9.102-13.654-9.102-31.858-4.551-50.063 0-4.55 0-9.102-4.551-13.653-13.653-9.102-27.307-22.755-31.858-40.96-4.551-18.204 0-36.409 4.551-50.062 4.551-4.551 0-9.102 0-13.653-13.653-13.654-18.204-27.307-18.204-45.512s9.102-36.408 18.204-45.51c4.551-4.552 4.551-9.103 0-13.654-4.55-18.204-9.102-36.409-4.55-54.613 4.55-18.205 18.204-31.858 31.857-40.96 4.551 0 4.551-4.551 4.551-9.103-4.551-18.204 0-36.408 9.102-50.062 9.102-18.204 22.756-27.306 36.41-31.858 4.55 0 9.101-4.55 9.101-9.102 0-18.204 9.103-36.409 18.205-45.51 13.653-13.654 27.306-18.205 45.51-18.205 4.552 0 9.103-4.551 9.103-9.103 4.551-18.204 13.653-31.857 31.858-40.96 9.102-4.55 22.755-9.102 31.858-9.102 4.55 0 13.653 0 18.204 4.551h4.551c4.551 0 9.102 0 9.102-4.55 9.103-18.205 22.756-31.859 40.96-36.41h18.205c13.653 0 22.755 4.551 31.858 9.103h4.55c4.552 0 4.552 0 9.103-4.552C484.693 9.102 502.898 0 516.551 0c18.205 0 36.409 9.102 45.511 18.204 0 0 4.551 4.552 9.102 4.552h4.552c9.102-4.552 22.755-9.103 31.857-9.103h18.205c18.204 4.551 31.858 13.654 40.96 31.858 0 4.551 4.55 4.551 9.102 4.551h22.756c13.653 0 22.755 4.551 31.857 9.102 13.654 9.103 27.307 22.756 31.858 40.96 0 4.552 4.551 9.103 9.102 9.103 18.205 0 36.41 9.102 45.511 18.204 13.654 13.653 18.205 27.307 18.205 45.511 0 4.551 4.551 9.102 9.102 9.102 18.205 4.552 31.858 13.654 40.96 31.858 9.102 13.654 9.102 31.858 4.551 50.062 0 4.552 0 9.103 4.551 13.654 13.654 9.102 27.307 22.755 31.858 40.96 4.551 18.204 0 36.409-4.551 50.062-4.551 4.551 0 9.102 0 13.653 13.653 13.654 18.204 27.307 18.204 45.511s-9.102 36.41-18.204 45.512c-4.551 4.55-4.551 9.102 0 13.653 9.102 13.653 9.102 31.858 4.551 50.062-4.551 18.205-13.653 31.858-31.858 40.96-4.55 4.551-4.55 9.102-4.55 13.653 4.55 18.205 0 36.41-4.552 50.063-9.102 13.653-22.755 27.306-40.96 31.857-4.551 0-9.102 4.552-9.102 9.103 0 18.204-4.551 36.409-18.205 45.51-13.653 13.654-27.306 18.205-45.51 18.205-4.552 0-9.103 4.551-9.103 9.102-4.551 18.205-13.653 31.858-31.858 40.96-9.102 4.552-22.755 9.103-31.857 9.103-4.552 0-13.654 0-18.205-4.551h-4.551c-4.551 0-9.102 0-9.102 4.55-9.102 13.654-22.756 27.307-40.96 31.858h-18.205c-13.653 0-22.755-4.55-31.857-9.102h-4.552c-4.55 0-4.55 0-9.102 4.551-9.102 9.103-27.306 18.205-45.51 18.205z m-54.613-40.96c4.55 0 13.653 4.55 18.204 9.102 9.102 9.102 22.756 13.653 36.41 13.653 13.652 0 27.306-4.55 36.408-13.653 4.551-4.551 9.102-9.102 18.204-9.102 4.552 0 9.103 0 13.654 4.55 13.653 4.552 27.306 9.103 40.96 4.552 13.653-4.551 22.755-13.653 31.858-22.756 4.55-9.102 13.653-13.653 22.755-13.653h18.205c9.102 0 18.204-4.551 27.306-9.102 13.654-9.102 18.205-18.205 22.756-31.858 4.55-9.102 13.653-18.204 22.755-18.204 13.654 0 27.307-4.551 36.41-13.654 9.101-9.102 13.653-22.755 13.653-36.409 0-13.653 9.102-22.755 18.204-22.755 13.653-4.551 22.756-13.653 31.858-22.756 9.102-13.653 9.102-27.306 4.55-40.96-4.55-9.102 0-22.755 13.654-27.306 13.654-9.103 18.205-18.205 22.756-31.858 4.55-13.653 0-27.307-4.551-40.96-4.551-9.102-4.551-22.756 4.55-31.858 9.103-9.102 13.654-22.755 13.654-36.409 0-13.653-4.551-27.306-13.653-36.409-9.102-9.102-9.102-22.755-4.551-31.857 9.102-13.654 9.102-27.307 4.55-40.96-4.55-13.654-13.653-22.756-22.755-31.858-9.102-4.551-13.653-18.205-13.653-27.307 4.551-13.653 0-27.307-4.551-40.96-9.102-13.653-18.205-18.204-31.858-22.755-9.102 4.55-18.204-4.552-18.204-13.654 0-13.653-4.552-27.306-13.654-36.409-9.102-9.102-22.755-13.653-36.409-13.653-13.653 0-22.755-9.102-22.755-18.204-4.551-13.654-13.654-22.756-22.756-31.858-9.102-4.551-18.204-9.102-27.306-9.102h-18.204c-9.103 0-18.205-4.552-22.756-13.654-9.103-13.653-18.205-18.204-31.858-22.755-13.654-4.551-27.307 0-40.96 4.55-4.551 0-9.102 4.552-13.654 4.552-4.55 0-13.653-4.551-18.204-9.102-9.102-9.103-22.756-13.654-36.409-13.654-13.653 0-27.307 4.551-36.409 13.654-4.55 9.102-9.102 9.102-18.204 9.102-4.551 0-9.102 0-13.654-4.551-9.102-4.551-22.755-9.102-36.408-4.551-13.654 4.55-22.756 13.653-31.858 27.306-4.551 4.551-13.654 9.103-22.756 9.103h-18.204c-9.102 0-18.205 0-27.307 4.55-9.102 9.103-18.204 18.205-22.755 31.858-4.552 13.654-13.654 18.205-22.756 18.205-13.653 0-27.307 4.551-36.409 18.204-9.102 9.103-18.204 22.756-18.204 36.41 0 9.101-4.551 18.204-18.205 22.755-13.653 4.55-22.755 13.653-31.858 22.755-4.55 13.654-9.102 27.307-4.55 40.96 4.55 9.103 0 22.756-13.654 27.307-9.102 9.102-18.204 18.204-22.756 31.858-4.55 13.653 0 27.306 4.552 40.96 4.55 9.102 4.55 22.755-4.552 31.858-9.102 4.55-13.653 18.204-13.653 31.857 0 13.654 4.551 27.307 13.653 36.41 9.103 9.101 9.103 22.755 4.552 31.857-9.103 13.653-9.103 27.307-4.552 40.96 4.552 13.653 13.654 22.756 22.756 31.858 9.102 4.55 13.653 18.204 13.653 27.306-4.55 13.654 0 27.307 4.551 40.96 9.103 13.654 18.205 18.205 31.858 22.756 9.102 4.551 18.205 13.653 18.205 22.756 0 13.653 4.55 27.306 13.653 36.408 13.653 9.103 27.307 13.654 40.96 13.654 13.653 0 22.756 9.102 22.756 18.204 4.55 13.654 13.653 22.756 22.755 31.858 9.102 4.551 18.205 9.102 27.307 9.102h18.204c9.102 0 18.205 4.551 22.756 13.654 9.102 13.653 18.204 18.204 31.858 22.755 13.653 4.551 27.306 0 40.96-4.551 0-4.551 4.55-9.102 9.102-9.102z" fill="#884400" p-id="2342"></path><path d="M516.551 54.613c100.125 0 195.698 40.96 259.413 109.227 68.267 68.267 109.227 159.289 109.227 259.413s-40.96 195.698-109.227 259.414c-68.266 68.266-159.288 109.226-259.413 109.226s-195.698-40.96-259.413-109.226C188.87 618.95 147.91 527.929 147.91 423.253c0-100.124 40.96-195.697 109.227-259.413C325.404 95.573 416.427 54.613 516.55 54.613z m245.76 127.431C698.596 118.33 616.676 81.92 521.102 81.92c-95.573 0-182.044 36.409-241.209 100.124-63.715 63.716-104.675 145.636-104.675 241.21s36.409 182.044 100.124 241.208c63.716 63.716 145.636 100.125 241.21 100.125 95.572 0 182.044-36.41 241.208-100.125 63.716-63.715 100.124-145.635 100.124-241.209s-36.408-177.493-95.573-241.209z" fill="#FFFFFF" p-id="2343"></path></svg>