<?xml version="1.0" standalone="no"?><!DOCTYPE svg PUBLIC "-//W3C//DTD SVG 1.1//EN" "http://www.w3.org/Graphics/SVG/1.1/DTD/svg11.dtd"><svg t="1615860483734" class="icon" viewBox="0 0 1024 1024" version="1.1" xmlns="http://www.w3.org/2000/svg" p-id="1174" xmlns:xlink="http://www.w3.org/1999/xlink" width="1080" height="1080"><defs><style type="text/css"></style></defs><path d="M913.066667 829.269333l-113.800534-201.045333a390.587733 390.587733 0 0 0 80.827734-239.4112c0-103.8336-39.6288-201.386667-111.547734-274.875733C696.5248 40.448 600.951467 0 499.131733 0 397.312 0 301.738667 40.448 229.717333 113.834667 157.7984 187.323733 118.1696 284.842667 118.1696 388.7104c0 96.085333 33.928533 186.811733 96.0512 258.013867L111.0016 829.269333a66.184533 66.184533 0 0 0 4.642133 72.3968 63.146667 63.146667 0 0 0 67.2768 23.3472l67.754667-18.466133 18.090667 68.983467A64.273067 64.273067 0 0 0 330.683733 1024c22.596267 0 43.690667-12.288 55.330134-32.6656l121.105066-213.9136c3.310933-0.136533 6.656-0.136533 10.001067-0.341333l121.070933 214.1184a63.522133 63.522133 0 0 0 63.6928 32.085333 64.273067 64.273067 0 0 0 53.4528-47.854933l18.090667-69.12 67.618133 18.432c25.122133 6.826667 51.541333-2.286933 67.242667-23.313067 15.735467-20.992 17.749333-49.322667 4.778667-72.157867zM283.648 168.8576c57.617067-58.811733 134.0416-91.136 215.483733-91.136a299.349333 299.349333 0 0 1 215.483734 91.136 311.978667 311.978667 0 0 1 89.2928 219.818667 313.105067 313.105067 0 0 1-61.5424 187.460266l-18.363734 20.650667a300.9536 300.9536 0 0 1-191.317333 99.362133l-26.897067 3.037867-18.670933-0.7168a300.885333 300.885333 0 0 1-198.9632-85.879467l-13.2096-13.0048a313.105067 313.105067 0 0 1-80.5888-210.875733c0-83.080533 31.675733-161.1776 89.2928-219.8528z m51.063467 757.3504l-16.418134-62.429867a53.76 53.76 0 0 0-24.917333-33.041066 52.1216 52.1216 0 0 0-40.448-5.461334l-61.201067 16.759467 80.008534-141.380267a373.998933 373.998933 0 0 0 151.552 69.12l-88.576 156.433067z m436.3264-100.932267c-28.330667-7.7824-57.719467 9.489067-65.365334 38.5024l-16.384 62.5664-91.716266-161.928533c53.589333-14.574933 103.458133-40.96 146.432-77.994667l88.132266 155.7504-61.098666-16.896z" p-id="1175" fill="#F28300"></path><path d="M512 546.133333c94.1056 0 170.666667-76.561067 170.666667-170.666666s-76.561067-170.666667-170.666667-170.666667-170.666667 76.561067-170.666667 170.666667 76.561067 170.666667 170.666667 170.666666z m0-273.066666c56.456533 0 102.4 45.943467 102.4 102.4s-45.943467 102.4-102.4 102.4-102.4-45.943467-102.4-102.4 45.943467-102.4 102.4-102.4z" p-id="1176" fill="#F28300"></path></svg>