<?xml version="1.0" standalone="no"?><!DOCTYPE svg PUBLIC "-//W3C//DTD SVG 1.1//EN" "http://www.w3.org/Graphics/SVG/1.1/DTD/svg11.dtd"><svg t="1614218312975" class="icon" viewBox="0 0 1024 1024" version="1.1" xmlns="http://www.w3.org/2000/svg" p-id="2840" xmlns:xlink="http://www.w3.org/1999/xlink" width="1080" height="1080"><defs><style type="text/css"></style></defs><path d="M672 128a32 32 0 0 1 32 32V320h128a64 64 0 0 1 64 64v384h32a32 32 0 1 1 0 64h-768a32 32 0 1 1 0-64H192V384a64 64 0 0 1 64-64h128V160a32 32 0 0 1 64 0V320h64V160a32 32 0 0 1 64 0V320h64V160a32 32 0 0 1 32-32zM832 384H256v384h576V384z" p-id="2841" fill="#F28300"></path></svg>