<?xml version="1.0" standalone="no"?><!DOCTYPE svg PUBLIC "-//W3C//DTD SVG 1.1//EN" "http://www.w3.org/Graphics/SVG/1.1/DTD/svg11.dtd"><svg t="1613788479492" class="icon" viewBox="0 0 1119 1024" version="1.1" xmlns="http://www.w3.org/2000/svg" p-id="8526" xmlns:xlink="http://www.w3.org/1999/xlink" width="1180.1953125" height="1080"><defs><style type="text/css"></style></defs><path d="M0 270.662848m66.64931 0l933.090341 0q66.64931 0 66.64931 66.64931l0 0q0 66.64931-66.64931 66.64931l-933.090341 0q-66.64931 0-66.64931-66.64931l0 0q0-66.64931 66.64931-66.64931Z" p-id="8527" fill="#F28300"></path><path d="M790.059224 0.021578m47.128179 47.128179l235.640896 235.640896q47.128179 47.128179 0 94.256358l0 0q-47.128179 47.128179-94.256359 0l-235.640895-235.640896q-47.128179-47.128179 0-94.256358l0 0q47.128179-47.128179 94.256358 0Z" p-id="8528" fill="#F28300"></path><path d="M1119.975007 753.47045m-66.649311 0l-933.090341 0q-66.64931 0-66.64931-66.64931l0 0q0-66.64931 66.64931-66.64931l933.090341 0q66.64931 0 66.649311 66.64931l0 0q0 66.64931-66.649311 66.64931Z" p-id="8529" fill="#F28300"></path><path d="M329.847348 1023.972844m-47.128179-47.128179l-235.640896-235.640896q-47.128179-47.128179 0-94.256358l0 0q47.128179-47.128179 94.256358 0l235.640896 235.640895q47.128179 47.128179 0 94.256359l0 0q-47.128179 47.128179-94.256358 0Z" p-id="8530" fill="#F28300"></path></svg>