<?xml version="1.0" standalone="no"?><!DOCTYPE svg PUBLIC "-//W3C//DTD SVG 1.1//EN" "http://www.w3.org/Graphics/SVG/1.1/DTD/svg11.dtd"><svg t="1613715337540" class="icon" viewBox="0 0 1024 1024" version="1.1" xmlns="http://www.w3.org/2000/svg" p-id="2965" data-spm-anchor-id="a313x.7781069.0.i10" xmlns:xlink="http://www.w3.org/1999/xlink" width="1080" height="1080"><defs><style type="text/css"></style></defs><path d="M424.6 811.9c13.4 0 24.3-10.9 24.3-24.3V631c0-13.4-10.9-24.3-24.3-24.3s-24.3 10.9-24.3 24.3v156.6c-0.1 13.4 10.8 24.3 24.3 24.3z" fill="#37E5FF" p-id="2966" data-spm-anchor-id="a313x.7781069.0.i12" class=""></path><path d="M875.2 467.3c-12.4-16-31.1-25.2-51.3-25.2H598.8c-4.3 0-7.8-1.9-10-5.6-2.2-3.7-2.2-8.1-0.2-12 14.1-26 22.8-52 26-77.1 3.7-29.1 10.1-123.8-8.9-175.9-5.2-14.5-18.9-52.9-72.5-56.2h-0.7l-0.7 0.1c-25.2 1.9-44.5 11-57.5 27.1-10.5 13-13.9 27-15.6 33.8-2.1 8.3-4.2 17.9-6.4 28.1l-0.2 0.7c-8.5 38.7-20.1 91.8-40.5 127.3-32.9 57.5-103.8 98.1-127.1 110.2-1.1-0.1-2.2-0.1-3.3-0.1h-92.1c-28.6 0-52 23.3-52 52v364.3c0 28.6 23.3 52 52 52h92.1c0.8 0 1.7 0 2.6-0.1l455.8-0.4c27.5 0 51.5-18.6 58.5-45.3l88.4-341.6c5.2-19.7 1.1-40.1-11.3-56.1z m-546.4 6c35-20.9 93.6-61.7 125.1-116.8 24-42 36.6-99.3 45.8-141.1 2.4-10.9 4.4-19.8 6.3-27.6 2.8-11.3 5.4-21.9 26.8-23.8 19.1 1.5 22.5 10.9 28 26.4 12.1 33 11 108.9 5.6 150.9-2.4 19.1-9.4 39.4-20.6 60.1-10.3 19-9.8 41.5 1.2 60 10.9 18.4 30.3 29.3 51.8 29.3h225.1c5 0 9.7 2.3 12.8 6.3s4.1 9.1 2.8 14.1l-88.4 341.6c-1.3 5.2-6 8.8-11.4 8.8l-406.5 0.4c0.1-1.1 0.1-2.1 0.1-3.2V494.4c0-7.3-1.6-14.5-4.5-21.1z m-142.9 21.1c0-1.8 1.5-3.3 3.3-3.3h92.1c1.8 0 3.3 1.5 3.3 3.3v364.3c0 1.6-1.1 3-2.7 3.3h-11.5l-5 0.1h-76.2c-1.8 0-3.3-1.5-3.3-3.3V494.4z" fill="#F28300" p-id="2967" data-spm-anchor-id="a313x.7781069.0.i11" class="selected"></path></svg>