<?xml version="1.0" standalone="no"?><!DOCTYPE svg PUBLIC "-//W3C//DTD SVG 1.1//EN" "http://www.w3.org/Graphics/SVG/1.1/DTD/svg11.dtd"><svg t="1613715443994" class="icon" viewBox="0 0 1024 1024" version="1.1" xmlns="http://www.w3.org/2000/svg" p-id="3715" xmlns:xlink="http://www.w3.org/1999/xlink" width="1080" height="1080"><defs><style type="text/css"></style></defs><path d="M649.6 112.5c-91.3-31.1-191.4-30-281.8 3.1-87.5 32-163.2 93.2-213.3 172.2-49.9 78.8-72.4 173.5-63.6 266.7 7.6 79.8 37.7 155.6 87.1 219.2 48.8 62.8 113.8 110.6 188 138.1 46.1 17.1 97.1 26.1 147.4 26.1 32.6 0 64.8-3.7 95.9-10.9 77.5-18.1 148.2-57.7 204.6-114.6 56.2-56.7 95.1-127.5 112.6-204.8 4.3-18.9 7.3-38.4 8.9-57.8 7.9-94.7-16.5-190.3-68.7-269.2-51.7-78.4-128.8-138-217.1-168.1z m-136.7 26c42.6 0 84.3 7 123.8 20.8 65.8 23 124 63.9 168.1 118.3 44.7 55.2 72.7 121.4 81.1 191.7 2.1 17.7 2.9 36 2.5 54.5-2 78.1-29.3 155.3-76.8 217.4-51 66.7-123.2 115-203.1 135.9C541 894.8 467.3 893 401 872.2c-75-23.5-142.2-71.5-189.3-135.2-26.3-35.5-45.9-74.2-58.1-114.9-8.5-28.4-13.5-59.6-15.5-98.1-4.2-78.9 22-163.4 72-231.7 48.6-66.5 118.8-115.8 197.4-138.8 33.8-9.9 69.4-15 105.4-15z" fill="#F28300" p-id="3716" data-spm-anchor-id="a313x.7781069.0.i23" class=""></path><path d="M337.2 463.1l25.5-0.2h327.8c13.2 0 24-10.2 24.6-23.1 0.3-6.7-2.1-13.1-6.7-17.9-4.6-4.9-10.9-7.5-17.6-7.5H387.4l58-59.2-1.5-1.5c1.6-4 2-8.4 1.3-12.7-1.7-10.2-9.8-18.2-20-19.9-4.6-0.7-9.1-0.2-13.3 1.6l-1.4-1.3-88.7 90.5c-2.9 2.9-5.3 5.9-7.3 8.7-5.8 8.5-6.3 18.9-1.4 28 4.7 8.9 14 14.5 24.1 14.5zM687.8 567.6l-25.5 0.2H334.5c-13.2 0-24 10.2-24.6 23.1-0.3 6.7 2.1 13.1 6.7 17.9 4.6 4.9 10.9 7.5 17.6 7.5h303.4l-58 59.2 1.5 1.5c-1.6 4-2 8.4-1.3 12.8 1.7 10.2 9.8 18.2 20 19.9 1.3 0.2 2.6 0.3 3.9 0.3 3.2 0 6.4-0.7 9.4-1.9l1.4 1.2 88.7-90.5c2.9-2.9 5.3-5.9 7.3-8.7 5.8-8.5 6.3-18.9 1.4-28-4.8-8.9-14.1-14.5-24.1-14.5z" fill="#37E5FF" p-id="3717" data-spm-anchor-id="a313x.7781069.0.i24" class="selected"></path></svg>