<?xml version="1.0" standalone="no"?><!DOCTYPE svg PUBLIC "-//W3C//DTD SVG 1.1//EN" "http://www.w3.org/Graphics/SVG/1.1/DTD/svg11.dtd"><svg t="1613783940790" class="icon" viewBox="0 0 1024 1024" version="1.1" xmlns="http://www.w3.org/2000/svg" p-id="2171" xmlns:xlink="http://www.w3.org/1999/xlink" width="1080" height="1080"><defs><style type="text/css"></style></defs><path d="M773.4272 260.992a83.5328 83.5328 0 1 0 0-167.1168 83.5328 83.5328 0 1 0 0 167.1168zM836.096 302.7712h-125.3376a83.8144 83.8144 0 0 0-83.5584 83.5584v229.7856h62.6688v313.344h167.1168v-313.344h62.6688v-229.7856a83.8144 83.8144 0 0 0-83.5584-83.5584z" fill="#37E5FF" opacity=".85" p-id="2172" data-spm-anchor-id="a313x.7781069.0.i5" class=""></path><path d="M277.6064 260.992a83.5328 83.5328 0 1 0 0-167.1168 83.5328 83.5328 0 1 0 0 167.1168zM359.296 360.0128a83.3024 83.3024 0 0 0-79.1808-57.2416h-4.7872a83.3024 83.3024 0 0 0-79.1808 57.2416L89.6 678.784h125.3376v250.7008h125.3376v-250.7008h125.3632l-106.3424-318.7712z" fill="#F28300" opacity=".9" p-id="2173" data-spm-anchor-id="a313x.7781069.0.i4" class="selected"></path></svg>